<?xml version="1.0" standalone="no"?>
<!DOCTYPE svg PUBLIC "-//W3C//DTD SVG 20010904//EN"
 "http://www.w3.org/TR/2001/REC-SVG-20010904/DTD/svg10.dtd">
<svg version="1.0" xmlns="http://www.w3.org/2000/svg"
 width="368.000000pt" height="353.000000pt" viewBox="0 0 368.000000 353.000000"
 preserveAspectRatio="xMidYMid meet">

<g transform="translate(0.000000,353.000000) scale(0.100000,-0.100000)"
fill="#000000" stroke="none">
<path d="M1539 3470 c-178 -30 -335 -81 -504 -165 -497 -246 -832 -677 -946
-1219 -34 -156 -38 -449 -9 -616 96 -561 454 -1031 975 -1281 183 -88 321
-127 593 -168 275 -42 667 27 968 170 572 270 963 855 990 1478 24 549 -209
1073 -629 1414 -243 197 -484 311 -786 373 -175 36 -478 43 -652 14z m634 -69
c182 -39 358 -102 487 -174 182 -101 374 -260 503 -415 524 -629 510 -1546
-35 -2160 -412 -464 -1041 -670 -1657 -542 -664 139 -1180 652 -1321 1315 -31
143 -38 411 -16 561 104 708 655 1280 1360 1414 151 29 145 28 371 25 168 -2
230 -7 308 -24z"/>
<path d="M1842 3133 c-18 -7 -87 -147 -107 -217 l-17 -57 -62 58 c-34 32 -81
68 -103 81 l-41 22 -26 -22 c-42 -37 -50 -136 -21 -267 7 -31 5 -33 -11 -26
-75 32 -114 -1 -114 -95 0 -56 23 -156 41 -174 15 -16 10 -36 -9 -36 -39 0
-57 -37 -59 -119 -1 -42 -2 -78 -3 -81 0 -2 -4 0 -9 5 -5 6 -16 49 -25 97 -8
48 -22 99 -32 113 -16 24 -16 29 0 77 20 62 21 157 2 201 -8 18 -39 57 -71 87
-31 30 -68 72 -81 93 -20 31 -30 37 -58 37 -61 0 -87 -51 -95 -188 l-6 -103
-60 47 c-66 51 -111 74 -149 74 -33 0 -46 -41 -46 -151 0 -140 52 -250 136
-289 24 -11 65 -30 92 -42 26 -12 74 -49 107 -83 33 -33 86 -74 117 -90 50
-26 58 -34 67 -72 6 -23 11 -54 11 -69 l0 -28 -34 33 c-19 19 -49 60 -66 93
-19 36 -48 71 -73 90 -87 64 -231 114 -307 106 -32 -3 -35 -6 -38 -39 -5 -55
32 -140 83 -191 24 -25 75 -61 112 -81 l68 -36 -3 -45 c-7 -88 54 -178 158
-231 50 -26 121 -43 156 -38 23 4 38 -2 59 -20 l29 -24 -20 -64 c-12 -43 -19
-92 -19 -149 1 -146 45 -230 121 -230 77 0 110 40 150 182 30 105 35 111 89
86 20 -9 25 -18 25 -49 0 -55 -21 -189 -35 -223 l-12 -28 -181 -2 -181 -1 -28
-27 -28 -27 0 -287 0 -287 245 -4 c278 -3 856 11 882 22 28 11 33 64 33 330
l0 250 -30 15 c-23 11 -69 15 -200 16 -93 1 -185 2 -202 3 l-33 1 0 63 c0 35
3 66 6 70 4 3 15 -4 24 -16 15 -19 28 -22 83 -22 56 0 69 4 92 25 78 73 102
247 56 400 -6 19 -11 35 -11 36 0 1 31 4 68 7 78 8 169 36 213 68 48 34 87 95
100 157 11 53 10 57 -11 74 -28 23 -66 23 -160 -2 -41 -11 -93 -20 -115 -20
l-40 1 28 24 c60 53 212 65 312 26 38 -15 82 -24 122 -25 55 -1 71 4 159 49
118 60 154 89 154 121 0 37 -71 65 -205 79 -56 6 -190 -6 -229 -21 -14 -5 -17
-3 -14 12 6 33 46 46 128 40 50 -3 88 0 115 10 22 7 55 14 73 14 18 0 50 9 71
19 95 49 171 188 131 241 -14 19 -23 22 -56 16 -21 -3 -75 -10 -119 -14 -103
-11 -183 -49 -239 -114 -41 -48 -76 -62 -76 -32 0 29 21 54 75 88 67 43 96 96
101 181 13 216 12 266 -3 280 -26 27 -68 17 -130 -29 -108 -79 -173 -208 -179
-351 l-3 -80 -53 -32 c-50 -31 -53 -31 -60 -13 -9 23 -39 40 -72 40 -14 0 -26
2 -26 4 0 2 15 27 34 55 57 85 66 181 21 232 -15 16 -15 20 -1 41 8 12 20 55
26 93 6 39 16 91 22 117 10 42 10 50 -7 68 -26 29 -42 25 -115 -24 -36 -23
-91 -58 -124 -77 -43 -25 -65 -46 -85 -81 -40 -73 -47 -68 -49 41 0 56 -8 125
-19 166 -18 69 -18 70 -53 72 -19 1 -41 -1 -48 -4z m70 -91 c8 -23 13 -82 13
-152 -1 -105 -3 -121 -30 -180 -21 -48 -29 -80 -29 -122 0 -32 3 -61 7 -64 10
-11 56 35 77 77 10 19 24 64 30 100 6 35 19 73 29 84 9 11 29 39 44 62 20 32
42 49 94 74 37 18 83 45 101 61 34 29 60 32 54 8 -2 -7 -5 -43 -8 -79 -3 -36
-10 -79 -16 -94 -16 -42 -78 -90 -173 -132 -58 -26 -86 -44 -91 -59 -3 -11
-35 -51 -70 -88 -60 -62 -78 -100 -58 -121 14 -13 63 35 109 106 45 71 49 74
133 111 47 21 100 39 117 40 28 1 30 -2 33 -38 7 -87 -52 -170 -156 -221 -46
-23 -65 -26 -106 -22 -28 3 -58 8 -66 11 -9 4 -23 1 -33 -6 -13 -10 -17 -31
-18 -100 -1 -47 2 -91 5 -97 13 -20 36 -11 42 17 19 75 73 108 233 141 57 11
106 21 109 21 14 0 -9 -96 -32 -131 -64 -96 -235 -147 -328 -97 -17 8 -18 1
-18 -90 0 -105 7 -162 21 -162 18 0 39 34 39 64 0 59 63 92 194 102 92 7 88 4
101 74 18 90 88 185 171 231 l51 29 5 93 c9 150 58 250 163 329 56 42 70 46
71 21 1 -10 4 -61 9 -113 12 -151 -12 -200 -142 -300 -29 -23 -33 -32 -39 -92
-7 -65 -6 -68 15 -68 32 0 59 16 123 76 36 33 79 60 115 74 61 23 228 49 239
37 12 -12 -26 -94 -61 -130 -24 -25 -47 -37 -77 -42 -24 -4 -80 -16 -126 -26
-66 -16 -90 -18 -122 -9 -52 14 -84 -2 -142 -72 -24 -28 -56 -65 -71 -81 -15
-16 -26 -32 -23 -34 15 -16 79 -1 139 32 67 37 70 37 170 36 119 -1 212 -19
212 -41 0 -9 -41 -35 -100 -65 -91 -45 -106 -50 -170 -50 -54 0 -80 5 -114 23
-49 26 -60 27 -181 19 -80 -5 -88 -8 -128 -42 -75 -64 -118 -82 -215 -88 -49
-4 -95 -11 -103 -18 -8 -6 -14 -29 -14 -52 0 -22 -5 -81 -11 -129 -13 -98 -4
-128 24 -85 17 26 51 42 108 52 45 7 89 40 89 66 0 34 28 76 65 99 20 13 78
29 140 40 58 11 114 24 124 30 11 5 29 10 40 10 30 0 28 -52 -4 -105 -47 -81
-168 -135 -304 -135 -101 0 -111 -8 -71 -51 88 -96 75 -340 -22 -399 -18 -11
-43 -20 -54 -20 -50 0 -138 109 -128 160 4 15 2 30 -4 34 -9 6 -20 -125 -24
-289 l-1 -80 226 -3 c218 -2 227 -3 238 -23 17 -33 8 -487 -10 -498 -7 -5 -39
-11 -70 -15 -46 -4 -722 -10 -946 -7 l-60 1 3 252 c2 222 5 254 20 271 16 18
27 19 168 12 158 -7 220 1 245 32 8 9 17 52 21 97 16 180 19 231 11 241 -4 6
-39 21 -78 33 -38 13 -74 25 -80 28 -6 2 -10 -23 -11 -64 -1 -86 -27 -163 -69
-208 -62 -66 -117 -31 -136 86 -13 79 -5 158 23 228 l22 52 -20 27 c-38 50
-66 64 -152 72 -64 7 -93 15 -130 38 -50 31 -97 97 -108 151 -6 31 -6 32 29
32 81 0 142 -36 268 -155 l118 -113 36 10 c52 17 79 0 99 -60 21 -61 38 -78
105 -98 72 -21 81 -16 81 48 0 68 -14 87 -93 131 -34 20 -92 62 -128 95 -85
78 -131 102 -226 114 -90 12 -128 28 -163 70 -22 25 -38 32 -101 43 -152 26
-243 101 -283 233 -7 19 -4 22 23 22 43 0 128 -20 177 -40 63 -27 112 -76 149
-149 18 -36 46 -78 62 -93 28 -27 99 -58 133 -58 17 0 17 3 -2 42 -11 23 -27
76 -35 118 l-15 76 -73 37 c-51 27 -92 58 -133 103 -38 40 -68 64 -81 64 -32
0 -112 44 -148 82 -54 55 -74 116 -74 215 0 48 5 91 10 96 14 14 111 -34 160
-79 58 -51 77 -95 84 -185 6 -89 22 -123 85 -192 44 -46 89 -76 140 -91 20 -7
22 -4 22 35 0 70 -20 164 -43 202 -12 20 -49 58 -82 84 -84 67 -119 139 -120
243 0 59 5 85 23 123 13 26 30 47 38 47 7 0 22 -17 33 -38 10 -20 46 -61 79
-90 75 -65 90 -101 72 -180 -6 -30 -18 -68 -25 -85 -11 -26 -10 -36 11 -81 19
-43 30 -89 60 -241 2 -12 44 -48 105 -90 120 -82 146 -117 161 -212 24 -153
46 -189 143 -227 58 -23 59 -22 76 91 15 102 3 186 -36 245 -33 49 -118 104
-174 112 -25 4 -66 18 -92 33 -39 21 -52 35 -72 82 -14 31 -27 68 -31 82 -6
28 10 89 25 89 24 0 143 -51 174 -74 50 -38 67 -69 76 -134 7 -51 13 -60 76
-124 79 -80 86 -77 87 37 0 89 -31 154 -114 237 -45 45 -65 58 -89 58 -101 0
-204 120 -204 238 0 77 11 82 87 45 35 -18 81 -47 102 -65 43 -38 84 -118 84
-167 0 -33 24 -71 108 -170 l29 -34 12 110 c18 160 4 186 -144 266 -68 36 -84
50 -112 97 -47 80 -66 163 -52 223 6 26 15 50 20 53 12 7 88 -39 142 -86 69
-61 89 -110 85 -215 -3 -86 -3 -87 27 -111 17 -13 33 -24 37 -24 3 0 9 38 13
85 7 81 6 87 -18 124 -34 51 -41 97 -27 167 13 64 39 121 77 172 29 39 44 32
65 -26z m-187 -556 c34 -37 50 -88 39 -130 -7 -30 -16 -32 -40 -9 -23 23 -41
68 -49 126 -9 58 4 61 50 13z m-638 -76 c59 -49 62 -53 77 -121 9 -39 13 -75
10 -80 -15 -25 -106 57 -144 131 -19 38 -28 120 -12 120 4 0 35 -23 69 -50z
m896 -57 c8 -7 -21 -43 -35 -43 -4 0 -8 11 -8 25 0 18 5 25 18 25 10 0 22 -3
25 -7z m-353 -73 c33 -18 120 -147 120 -179 0 -76 -61 -29 -91 71 -12 37 -30
79 -41 93 -21 27 -18 31 12 15z m585 -150 c3 -6 -1 -13 -10 -16 -19 -8 -30 0
-20 15 8 14 22 14 30 1z m-229 -45 c19 -14 18 -15 -6 -34 -28 -23 -40 -19 -40
13 0 38 15 45 46 21z m-389 -74 c82 -38 133 -150 119 -262 -10 -83 -16 -87
-71 -55 -53 31 -60 45 -70 139 -5 49 -17 87 -41 133 l-34 64 28 0 c15 0 46 -9
69 -19z m516 -233 l-39 -73 -62 0 c-69 0 -66 -4 -56 82 7 58 5 58 137 61 l59
2 -39 -72z m-700 -52 c47 -27 94 -73 84 -82 -10 -10 -84 -6 -107 6 -24 13 -80
87 -80 106 0 17 47 3 103 -30z m228 -162 c30 -15 44 -31 53 -62 17 -54 -81
-25 -108 33 -28 59 -16 66 55 29z"/>
<path d="M1842 2982 c-40 -92 -45 -141 -25 -214 7 -27 22 -22 20 6 -3 36 17
36 23 1 8 -42 17 -22 28 65 11 74 5 139 -15 174 -8 15 -13 11 -31 -32z"/>
<path d="M2168 2897 c-47 -24 -71 -45 -95 -81 -38 -56 -45 -90 -14 -62 30 27
46 15 22 -16 -12 -14 -21 -29 -21 -32 0 -9 125 65 153 92 42 40 62 132 28 132
-5 0 -38 -15 -73 -33z m32 -44 c0 -14 -34 -43 -51 -43 -24 0 -15 24 14 38 26
13 37 14 37 5z"/>
<path d="M1530 2852 c0 -72 23 -142 60 -182 43 -46 52 -37 29 25 -23 61 -18
86 12 59 10 -9 21 -36 25 -60 3 -23 15 -51 25 -60 18 -17 19 -15 19 37 0 78
-37 149 -105 200 -28 21 -55 39 -58 39 -4 0 -7 -26 -7 -58z"/>
<path d="M1027 2806 c-13 -33 -7 -172 8 -218 19 -53 74 -124 75 -95 0 11 -7
44 -16 74 -9 30 -13 57 -10 61 13 12 39 -28 50 -80 14 -57 24 -64 43 -27 32
61 9 141 -60 206 -29 28 -60 61 -68 74 -14 20 -16 21 -22 5z m61 -106 c11 -18
10 -20 -13 -20 -18 0 -25 5 -25 20 0 11 6 20 13 20 7 0 18 -9 25 -20z"/>
<path d="M2623 2738 c-53 -54 -84 -125 -91 -205 -5 -72 9 -85 28 -25 15 45 37
82 50 82 19 0 10 -41 -15 -74 -40 -53 -30 -73 21 -40 42 28 76 98 81 167 5 64
-6 128 -23 134 -5 2 -28 -16 -51 -39z m36 -66 c14 -27 -2 -46 -33 -38 -30 7
-33 18 -10 40 20 21 31 20 43 -2z"/>
<path d="M756 2617 c-9 -49 10 -144 39 -193 16 -28 41 -52 65 -64 53 -27 52
-11 0 63 -38 52 -55 117 -31 117 5 0 29 -39 53 -87 48 -97 75 -121 64 -57 -20
114 -72 196 -146 234 l-38 19 -6 -32z"/>
<path d="M2195 2625 c-60 -18 -96 -39 -139 -83 -49 -52 -44 -67 13 -41 49 22
82 19 61 -6 -6 -7 -34 -21 -61 -30 -70 -23 -74 -39 -10 -33 36 4 65 14 94 34
46 33 90 109 85 147 -3 24 -4 24 -43 12z"/>
<path d="M1420 2593 c0 -78 43 -149 111 -184 32 -16 39 -17 39 -5 0 8 -13 24
-30 36 -16 12 -30 26 -30 31 0 19 31 8 57 -21 45 -51 59 -30 24 38 -22 42 -60
80 -111 111 -47 28 -60 27 -60 -6z m78 -62 c3 -8 -1 -12 -9 -9 -7 2 -15 10
-17 17 -3 8 1 12 9 9 7 -2 15 -10 17 -17z"/>
<path d="M1836 2368 c-3 -35 -8 -131 -11 -215 -2 -84 -11 -196 -19 -250 -43
-286 -47 -331 -34 -444 10 -87 9 -129 -1 -207 -7 -53 -16 -130 -21 -169 -4
-40 -13 -80 -20 -88 -10 -12 -44 -15 -191 -15 -98 0 -189 -4 -203 -10 l-26
-10 0 -230 0 -230 253 -1 c470 -2 731 1 739 9 15 15 25 184 20 328 l-4 141
-173 7 c-96 4 -207 4 -248 0 -81 -7 -151 1 -142 17 4 5 21 9 38 9 45 0 52 8
55 65 1 28 7 79 12 115 6 38 8 286 5 605 -3 297 -5 561 -5 588 1 69 -17 58
-24 -15z m-6 -792 c0 -72 -10 -122 -21 -104 -17 26 -7 158 12 158 5 0 9 -24 9
-54z m-20 -485 c0 -11 -4 -23 -10 -26 -6 -4 -10 5 -10 19 0 14 5 26 10 26 6 0
10 -9 10 -19z m422 -178 c16 -14 18 -33 18 -152 0 -75 -5 -152 -10 -172 l-10
-36 -432 -7 c-237 -3 -433 -4 -435 -2 -7 6 -3 367 3 378 3 4 195 8 426 8 378
0 423 -2 440 -17z"/>
<path d="M1433 893 c-12 -2 -24 -10 -26 -18 -3 -7 -7 -78 -8 -157 -1 -103 1
-143 9 -142 7 1 16 2 22 3 6 0 7 37 3 94 -3 52 -3 115 1 140 l7 47 339 0 c186
0 345 -3 354 -6 14 -5 16 -27 16 -141 0 -134 0 -134 23 -131 22 3 22 6 25 161
l3 157 -373 -1 c-205 -1 -383 -4 -395 -6z"/>
<path d="M1980 814 c-16 -41 -12 -130 6 -148 23 -23 31 -20 38 15 14 71 1 159
-24 159 -6 0 -15 -12 -20 -26z"/>
<path d="M1470 756 c0 -50 4 -77 14 -85 19 -16 26 5 26 74 0 63 -7 85 -26 85
-11 0 -14 -17 -14 -74z"/>
<path d="M1550 744 c0 -102 -9 -124 -51 -124 -26 0 -30 -3 -27 -22 3 -23 3
-23 228 -26 124 -2 267 0 318 3 l92 7 0 119 c0 99 -3 121 -15 126 -25 9 -30
-4 -35 -100 l-5 -91 -33 -10 c-22 -6 -40 -5 -57 2 -23 11 -24 17 -27 104 l-3
93 -29 3 -28 4 3 -99 4 -98 -34 -3 c-76 -7 -80 -2 -83 101 -3 84 -5 92 -23 92
-18 0 -21 -8 -25 -87 -4 -65 -10 -91 -24 -107 -23 -25 -53 -27 -85 -4 -22 15
-23 20 -18 87 8 86 1 116 -24 116 -17 0 -19 -8 -19 -86z"/>
<path d="M1639 807 c-15 -33 -3 -160 14 -154 23 7 34 52 28 111 -7 65 -24 82
-42 43z"/>
<path d="M1810 747 c0 -66 3 -86 15 -91 20 -7 27 24 23 104 -2 52 -6 65 -20
68 -16 3 -18 -6 -18 -81z"/>
<path d="M2860 2406 c-65 -14 -87 -25 -119 -60 -29 -30 -24 -32 24 -9 34 16
53 14 41 -6 -3 -5 -30 -18 -59 -28 l-52 -18 49 -3 c75 -5 177 30 215 73 42 49
41 65 -6 64 -21 0 -63 -6 -93 -13z m35 -46 c-3 -5 -10 -10 -16 -10 -5 0 -9 5
-9 10 0 6 7 10 16 10 8 0 12 -4 9 -10z"/>
<path d="M2438 2335 c-56 -41 -88 -82 -122 -155 -49 -105 -25 -118 36 -20 20
33 44 60 53 60 27 0 16 -28 -31 -82 -47 -52 -48 -67 -2 -49 91 34 164 181 132
265 -8 22 -12 21 -66 -19z"/>
<path d="M2145 2320 c-38 -11 -73 -19 -77 -19 -15 -2 -78 -64 -78 -78 0 -16
23 -12 72 13 15 8 34 14 43 14 28 0 4 -21 -51 -46 -51 -22 -71 -44 -40 -44 43
0 126 24 159 46 43 28 77 78 77 112 0 27 -10 27 -105 2z"/>
<path d="M1390 2287 c0 -38 39 -125 67 -149 22 -20 83 -35 83 -21 0 5 -16 24
-35 42 -19 17 -35 36 -35 41 0 24 36 6 73 -35 47 -52 60 -56 51 -17 -18 73
-60 115 -151 151 l-53 21 0 -33z"/>
<path d="M770 2153 c0 -20 60 -102 91 -126 33 -25 157 -72 166 -64 5 6 -34 36
-76 59 -17 9 -31 24 -31 33 0 24 15 18 66 -25 48 -43 60 -45 50 -12 -12 37
-92 100 -146 116 -75 22 -120 30 -120 19z"/>
<path d="M2659 2100 c-45 -8 -89 -25 -89 -36 0 -2 29 -3 65 -2 84 4 86 -15 3
-22 -61 -5 -62 -5 -38 -20 15 -8 52 -14 91 -15 53 0 76 5 124 30 32 17 60 35
62 41 7 20 -146 37 -218 24z"/>
<path d="M1282 2023 c9 -119 62 -192 171 -238 53 -22 48 -2 -14 54 -50 45 -86
97 -75 108 5 6 47 -35 99 -95 35 -42 51 -42 42 1 -17 80 -64 136 -169 202
l-59 37 5 -69z"/>
<path d="M2083 2029 c-35 -10 -82 -61 -63 -67 7 -3 17 1 23 7 14 14 57 14 57
0 0 -5 -13 -15 -30 -20 -69 -24 -12 -40 62 -17 44 13 127 81 115 94 -12 12
-128 15 -164 3z"/>
<path d="M2385 1849 c-32 -5 -80 -16 -106 -24 -46 -16 -109 -69 -96 -82 4 -4
29 1 55 10 51 18 86 22 78 8 -3 -4 -34 -18 -68 -31 -54 -20 -60 -24 -41 -31
30 -11 122 5 170 29 48 25 90 69 98 105 8 31 10 30 -90 16z"/>
<path d="M1030 1803 c0 -2 9 -16 20 -30 11 -14 20 -31 20 -37 0 -16 95 -75
130 -83 43 -8 37 11 -9 32 -50 22 -87 60 -71 70 7 4 24 -2 38 -14 52 -41 71
-53 83 -49 21 7 -39 65 -88 85 -48 20 -123 36 -123 26z"/>
<path d="M2004 1599 c-51 -14 -68 -42 -72 -119 -6 -94 18 -169 70 -225 40 -44
40 -44 70 -29 47 24 68 83 68 189 0 102 -13 161 -38 173 -30 16 -66 20 -98 11z
m93 -80 c22 -62 10 -176 -23 -227 -21 -32 -49 -14 -80 51 -47 102 -41 180 15
209 43 22 73 11 88 -33z"/>
<path d="M1462 1558 c-32 -32 0 -78 42 -62 19 7 20 15 4 49 -12 27 -27 32 -46
13z"/>
<path d="M1409 1451 c-30 -65 -19 -242 17 -272 12 -10 20 -7 43 15 37 35 51
86 51 183 l0 79 -49 10 c-48 10 -50 9 -62 -15z m74 -112 c-1 -46 -16 -89 -32
-89 -5 0 -14 14 -21 30 -15 37 -7 95 16 122 17 18 18 18 28 1 5 -10 9 -39 9
-64z"/>
<path d="M2850 1513 c-47 -2 -95 -8 -107 -14 -16 -9 -30 -9 -54 0 -45 15 -151
14 -174 -3 -17 -12 -17 -19 -7 -87 6 -42 9 -152 7 -254 -3 -142 -1 -185 10
-201 13 -20 20 -21 157 -17 79 3 159 9 177 14 26 6 39 5 50 -5 12 -10 36 -12
98 -7 45 3 85 9 88 13 24 24 33 220 13 313 -5 28 -13 90 -17 140 -5 82 -8 91
-31 102 -14 7 -47 12 -75 11 -27 -1 -88 -3 -135 -5z m-182 -52 c10 -6 13 -28
11 -77 -2 -48 1 -69 9 -68 7 1 23 2 37 3 24 1 25 4 25 64 0 36 5 68 12 75 13
13 223 16 268 3 20 -5 26 -14 28 -45 5 -55 -10 -66 -84 -66 -62 0 -90 -14 -63
-31 8 -5 39 -9 69 -9 84 0 85 -2 88 -138 2 -65 0 -134 -5 -153 -9 -34 -9 -34
-69 -34 l-59 0 -3 80 c-3 87 -9 100 -41 90 -19 -6 -21 -14 -21 -76 l0 -70 -35
-15 c-48 -20 -275 -20 -275 0 0 7 -3 34 -6 60 l-7 46 72 0 c69 0 71 1 71 25 0
24 -3 25 -54 25 -90 0 -86 -8 -86 160 l0 149 28 4 c49 7 77 7 90 -2z"/>
<path d="M2596 1351 c-4 -49 -4 -105 -1 -125 l7 -36 57 0 c75 0 83 -7 79 -66
l-3 -49 -68 -5 c-64 -5 -94 -20 -81 -42 3 -4 56 -8 119 -8 130 0 125 -4 125
100 l0 67 61 7 c34 4 64 4 68 1 3 -4 8 -42 10 -85 3 -69 6 -80 23 -86 11 -3
24 -2 29 3 5 5 8 63 7 129 l-3 119 -68 1 c-88 2 -97 7 -97 46 0 54 12 63 77
60 68 -3 88 6 78 37 -6 20 -13 21 -116 21 -97 0 -109 -2 -110 -17 0 -10 -1
-45 -2 -78 -2 -59 -2 -59 -37 -67 -19 -4 -52 -5 -72 -2 l-38 6 0 73 c0 68 -7
85 -35 85 -1 0 -6 -40 -9 -89z m249 -101 c3 -6 -5 -14 -18 -19 -31 -12 -37
-29 -37 -104 0 -84 -17 -61 -22 29 -3 68 -2 72 22 87 30 18 47 20 55 7z"/>
<path d="M930 1499 c-30 -6 -108 -10 -173 -9 l-118 1 -14 -35 c-17 -41 -21
-286 -5 -316 7 -13 5 -29 -5 -54 -18 -41 -19 -105 -4 -139 10 -23 11 -23 162
-20 84 2 170 8 192 14 28 7 49 7 68 0 16 -6 52 -11 81 -11 83 0 90 13 95 174
2 72 4 185 5 251 l1 120 -26 12 c-36 17 -191 24 -259 12z m230 -52 c28 -14 38
-54 20 -87 -11 -20 -17 -21 -69 -15 -48 5 -61 3 -81 -13 l-25 -20 27 -11 c17
-6 46 -7 80 -2 29 5 56 7 59 6 3 -2 5 -72 4 -154 -1 -181 -5 -189 -82 -175
l-48 9 -3 55 c-4 86 -9 100 -37 100 -28 0 -33 -14 -37 -100 -3 -52 -5 -55 -33
-61 -16 -4 -90 -7 -162 -8 l-133 -1 0 43 c0 51 13 67 55 67 55 0 107 13 112
27 10 25 -16 38 -85 43 l-67 5 -3 124 c-3 157 4 173 81 169 l52 -3 -3 -72 -2
-73 30 0 c30 0 30 0 30 58 0 31 4 62 8 69 18 29 263 45 312 20z"/>
<path d="M949 1423 l-57 -4 -6 -37 c-3 -20 -6 -51 -6 -69 0 -37 -21 -53 -72
-53 -50 0 -57 9 -60 85 -3 67 -4 70 -28 70 l-25 0 -3 -117 -3 -118 71 0 71 0
15 -36 c16 -38 12 -83 -9 -96 -6 -4 -39 -4 -72 -1 -48 4 -63 2 -74 -11 -22
-27 26 -37 140 -30 l99 7 0 71 c0 39 4 77 9 84 5 9 27 12 72 10 l64 -3 -1 -55
c0 -30 -2 -66 -5 -80 -3 -21 0 -25 25 -28 16 -2 32 2 37 10 14 22 11 226 -3
235 -7 4 -43 6 -79 4 -64 -2 -67 -1 -73 23 -8 33 10 71 41 85 13 6 46 11 73
11 42 0 50 3 50 19 0 14 -10 20 -46 25 -26 3 -56 5 -68 4 -12 -1 -46 -3 -77
-5z m-4 -120 c0 -70 -2 -79 -27 -103 -25 -25 -29 -26 -48 -13 -22 15 -22 15
10 42 26 21 33 35 37 76 5 59 10 75 20 75 4 0 8 -35 8 -77z"/>
<path d="M373 3 c9 -2 23 -2 30 0 6 3 -1 5 -18 5 -16 0 -22 -2 -12 -5z"/>
</g>
</svg>
